<svg width="41" height="41" viewBox="0 0 41 41" fill="none" xmlns="http://www.w3.org/2000/svg">
<rect width="41" height="41" rx="20.5" fill="#F96F24"/>
<path d="M23.0006 30.123V32H19.1217V30.134C15.9591 29.539 14 27.3926 14 24.1434H18.9636C18.9636 25.3556 19.9239 25.961 20.9984 25.961C22.0061 25.961 22.9663 25.4319 22.9663 24.5078C22.9663 23.3856 21.619 23.0603 19.9672 22.6391C17.4449 21.9925 14.2335 21.1892 14.2335 17.1055C14.2335 14.1976 15.9806 12.3109 18.9473 11.7636V10H22.8261V11.782C25.7746 12.3753 27.4367 14.3798 27.4367 17.3635L22.6169 17.3747C22.6169 16.3232 21.8014 15.8096 20.8048 15.8096C19.939 15.8096 19.1123 16.1773 19.1123 16.952C19.1123 17.9787 20.4188 18.3152 22.0735 18.7479C24.6437 19.4325 28 20.3009 28 24.4089C27.9998 27.6162 25.9922 29.5511 23.0006 30.123Z" fill="white"/>
</svg>
