<svg width="25" height="29" viewBox="0 0 25 29" fill="none" xmlns="http://www.w3.org/2000/svg">
<path d="M12.8298 0.408656L23.9447 11.2177C23.9447 11.2177 25.2994 12.5023 23.8246 12.5023C22.3521 12.5023 18.7854 12.5023 18.7854 12.5023C18.7854 12.5023 18.7854 13.3675 18.7854 14.6965C18.7854 18.5035 18.7854 25.4188 18.7854 28.2337C18.7854 28.2337 18.9901 29 17.8257 29C16.6657 29 7.22457 29 6.39268 29C5.56523 29 5.58414 28.3594 5.58414 28.3594C5.58414 25.6202 5.58414 18.4656 5.58414 14.7911C5.58414 13.6011 5.58414 12.8226 5.58414 12.8226C5.58414 12.8226 2.7259 12.8226 0.930874 12.8226C-0.864148 12.8226 0.489347 11.4791 0.489347 11.4791C0.489347 11.4791 10.2663 1.38068 11.324 0.321908C12.0947 -0.449929 12.8298 0.408656 12.8298 0.408656Z" fill="url(#paint0_linear_4412_113)"/>
<defs>
<linearGradient id="paint0_linear_4412_113" x1="12.2564" y1="0" x2="12.2564" y2="29" gradientUnits="userSpaceOnUse">
<stop stop-color="#41EA74"/>
<stop offset="1" stop-color="#039C31"/>
</linearGradient>
</defs>
</svg>
