<svg width="119" height="98" viewBox="0 0 119 98" fill="none" xmlns="http://www.w3.org/2000/svg">
<path d="M119 86.1221H0.05896V91.4621H119V86.1221Z" fill="white"/>
<path d="M119 74.254H0.05896V80.054H119V74.254Z" fill="white"/>
<path d="M119 91.463H0.05896V97.532H119V91.463Z" fill="#BF1E00"/>
<path d="M119 80.0541H0.05896V86.1231H119V80.0541Z" fill="#BF1E00"/>
<path d="M119 61.6311H0.05896V68.1851H119V61.6311Z" fill="white"/>
<path d="M0.05896 39.056V43.911H119V39.056H0.05896Z" fill="white"/>
<path d="M119 49.979H0.05896V55.562H119V49.979Z" fill="white"/>
<path d="M119 5.80005H51.585V9.92705H119V5.80005Z" fill="white"/>
<path d="M119 27.4041H51.585V32.9871H119V27.4041Z" fill="white"/>
<path d="M119 15.995H51.585V21.335H119V15.995Z" fill="white"/>
<path d="M0.05896 69.858V74.2581H119V68.1891H0.05896V69.858Z" fill="#BF1E00"/>
<path d="M119 55.5631H0.05896V61.6321H119V55.5631Z" fill="#BF1E00"/>
<path d="M119 43.911H0.05896V49.98H119V43.911Z" fill="#BF1E00"/>
<path d="M119 32.9871H51.585V39.0561H119V32.9871Z" fill="#BF1E00"/>
<path d="M119 21.3361H51.585V27.4051H119V21.3361Z" fill="#BF1E00"/>
<path d="M119 9.92603H51.585V15.995H119V9.92603Z" fill="#BF1E00"/>
<path d="M119 0.468018H51.585V5.80002H119V0.468018Z" fill="#BF1E00"/>
<path d="M51.585 32.9871V0.468018H0.05896V39.056H51.585V32.9871ZM46.2689 3.28711L46.802 2.20703L47.335 3.28711L48.527 3.46008L47.6639 4.30005L47.864 5.48706L46.798 4.927L45.7319 5.48706L45.932 4.30005L45.069 3.46008L46.2689 3.28711ZM37.793 3.28711L38.325 2.20703L38.859 3.28711L40.0499 3.46008L39.188 4.30005L39.3879 5.48706L38.3209 4.927L37.256 5.48706L37.4559 4.30005L36.594 3.46008L37.793 3.28711ZM29.3159 3.28711L29.849 2.20703L30.382 3.28711L31.574 3.46008L30.712 4.30005L30.912 5.48706L29.8459 4.927L28.78 5.48706L28.98 4.30005L28.1169 3.46008L29.3159 3.28711ZM20.84 3.28711L21.3729 2.20703L21.906 3.28711L23.0969 3.46008L22.235 4.30005L22.4349 5.48706L21.369 4.927L20.303 5.48706L20.5029 4.30005L19.641 3.46008L20.84 3.28711ZM12.3629 3.28711L12.896 2.20703L13.429 3.28711L14.621 3.46008L13.759 4.30005L13.959 5.48706L12.8929 4.927L11.827 5.48706L12.027 4.30005L11.1639 3.46008L12.3629 3.28711ZM3.88696 3.28711L4.41992 2.20703L4.953 3.28711L6.14502 3.46008L5.28198 4.30005L5.48193 5.48706L4.41602 4.927L3.34998 5.48706L3.54993 4.30005L2.68799 3.46008L3.88696 3.28711ZM10.099 9.37402L9.03296 8.81409L7.96692 9.37402L8.16699 8.18701L7.30493 7.34705L8.49597 7.1731L9.02893 6.09302L9.56201 7.1731L10.754 7.34705L9.89197 8.18701L10.099 9.37402ZM18.5759 9.37402L17.51 8.81409L16.444 9.37402L16.6439 8.18701L15.782 7.34705L16.974 7.1731L17.507 6.09302L18.0399 7.1731L19.2319 7.34705L18.369 8.18701L18.5759 9.37402ZM27.052 9.37402L25.986 8.81409L24.9199 9.37402L25.12 8.18701L24.257 7.34705L25.449 7.1731L25.9819 6.09302L26.515 7.1731L27.707 7.34705L26.845 8.18701L27.052 9.37402ZM35.5289 9.37402L34.463 8.81409L33.397 9.37402L33.5969 8.18701L32.735 7.34705L33.927 7.1731L34.46 6.09302L34.9929 7.1731L36.184 7.34705L35.322 8.18701L35.5289 9.37402ZM44.005 9.37402L42.939 8.81409L41.8729 9.37402L42.073 8.18701L41.21 7.34705L42.402 7.1731L42.9349 6.09302L43.468 7.1731L44.66 7.34705L43.798 8.18701L44.005 9.37402ZM5.48596 21.0341L4.41992 20.474L3.354 21.0341L3.55396 19.847L2.69202 19.0061L3.88403 18.833L4.41699 17.7531L4.94995 18.833L6.14197 19.0061L5.27893 19.847L5.48596 21.0341ZM13.962 13.2611L12.896 12.7001L11.83 13.2611L12.03 12.0741L11.167 11.233L12.359 11.0601L12.892 9.9801L13.4249 11.0601L14.6169 11.233L13.755 12.0741L13.962 13.2611ZM15.785 15.12L16.9769 14.947L17.51 13.8671L18.043 14.947L19.235 15.12L18.3719 15.9601L18.3779 15.995L18.578 17.1471L17.512 16.587L16.4459 17.1471L16.646 15.995L16.652 15.9601L15.785 15.12ZM22.439 13.2611L21.3729 12.7001L20.307 13.2611L20.507 12.0741L19.645 11.233L20.837 11.0601L21.37 9.9801L21.903 11.0601L23.094 11.233L22.2319 12.0741L22.439 13.2611ZM24.261 15.12L25.453 14.947L25.986 13.8671L26.5189 14.947L27.7109 15.12L26.849 15.9601L26.855 15.995L27.0549 17.1471L25.989 16.587L24.923 17.1471L25.1229 15.995L25.129 15.9601L24.261 15.12ZM30.9149 13.2611L29.849 12.7001L28.783 13.2611L28.983 12.0741L28.12 11.233L29.312 11.0601L29.845 9.9801L30.3779 11.0601L31.5699 11.233L30.708 12.0741L30.9149 13.2611ZM32.7379 15.12L33.9299 14.947L34.463 13.8671L34.996 14.947L36.187 15.12L35.325 15.9601L35.3309 15.995L35.531 17.1471L34.465 16.587L33.3989 17.1471L33.599 15.995L33.605 15.9601L32.7379 15.12ZM39.392 13.2611L38.325 12.7001L37.26 13.2611L37.46 12.0741L36.598 11.233L37.7899 11.0601L38.322 9.9801L38.856 11.0601L40.047 11.233L39.1849 12.0741L39.392 13.2611ZM39.392 21.0341L38.325 20.474L37.26 21.0341L37.46 19.847L36.598 19.0061L37.7899 18.833L38.322 17.7531L38.856 18.833L40.047 19.0061L39.1849 19.847L39.392 21.0341ZM30.9149 21.0341L29.849 20.474L28.783 21.0341L28.983 19.847L28.12 19.0061L29.312 18.833L29.845 17.7531L30.3779 18.833L31.5699 19.0061L30.708 19.847L30.9149 21.0341ZM22.439 21.0341L21.3729 20.474L20.307 21.0341L20.507 19.847L19.645 19.0061L20.837 18.833L21.37 17.7531L21.903 18.833L23.094 19.0061L22.2319 19.847L22.439 21.0341ZM12.3629 18.8341L12.896 17.754L13.429 18.8341L14.621 19.0071L13.759 19.848L13.959 21.035L12.8929 20.4751L11.827 21.035L12.027 19.848L11.1639 19.0071L12.3629 18.8341ZM47.8679 21.0341L46.802 20.474L45.736 21.0341L45.936 19.847L45.073 19.0061L46.265 18.833L46.798 17.7531L47.3309 18.833L48.5229 19.0061L47.66 19.847L47.8679 21.0341ZM44.005 17.1471L42.939 16.587L41.8729 17.1471L42.073 15.995L42.079 15.9601L41.2159 15.12L42.408 14.947L42.9409 13.8671L43.474 14.947L44.666 15.12L43.804 15.9601L43.8099 15.995L44.005 17.1471ZM47.8679 13.2611L46.802 12.7001L45.736 13.2611L45.936 12.0741L45.073 11.233L46.265 11.0601L46.798 9.9801L47.3309 11.0601L48.5229 11.233L47.66 12.0741L47.8679 13.2611ZM5.48596 13.2611L4.41992 12.7001L3.354 13.2611L3.55396 12.0741L2.69202 11.233L3.88403 11.0601L4.41699 9.9801L4.94995 11.0601L6.14197 11.233L5.27893 12.0741L5.48596 13.2611ZM7.30896 15.12L8.5 14.947L9.03296 13.8671L9.56592 14.947L10.7579 15.12L9.896 15.9601L9.90198 15.995L10.1019 17.1471L9.03601 16.587L7.96997 17.1471L8.16992 15.995L8.17603 15.9601L7.30896 15.12ZM10.099 24.92L9.03296 24.359L7.96692 24.92L8.16699 23.733L7.30493 22.8921L8.49597 22.7191L9.02893 21.639L9.56201 22.7191L10.754 22.8921L9.89197 23.733L10.099 24.92ZM11.171 26.7791L12.3629 26.6051L12.896 25.526L13.429 26.6051L14.621 26.7791L13.98 27.4031L13.759 27.619L13.959 28.806L12.8929 28.2461L11.827 28.806L12.027 27.619L11.8049 27.4031L11.171 26.7791ZM18.5709 24.92L17.505 24.359L16.439 24.92L16.6389 23.733L15.777 22.8921L16.969 22.7191L17.502 21.639L18.035 22.7191L19.2269 22.8921L18.364 23.733L18.5709 24.92ZM19.6429 26.7791L20.835 26.6051L21.3679 25.526L21.901 26.6051L23.0919 26.7791L22.452 27.4031L22.23 27.619L22.4299 28.806L21.364 28.2461L20.298 28.806L20.4979 27.619L20.277 27.4031L19.6429 26.7791ZM27.043 24.92L25.9769 24.359L24.911 24.92L25.111 23.733L24.2479 22.8921L25.4399 22.7191L25.973 21.639L26.506 22.7191L27.698 22.8921L26.8359 23.733L27.043 24.92ZM28.115 26.7791L29.307 26.6051L29.84 25.526L30.3729 26.6051L31.5649 26.7791L30.924 27.4031L30.703 27.619L30.903 28.806L29.837 28.2461L28.771 28.806L28.9709 27.619L28.749 27.4031L28.115 26.7791ZM35.515 24.92L34.449 24.359L33.3829 24.92L33.583 23.733L32.7209 22.8921L33.913 22.7191L34.4459 21.639L34.979 22.7191L36.1699 22.8921L35.308 23.733L35.515 24.92ZM36.587 26.7791L37.7789 26.6051L38.311 25.526L38.845 26.6051L40.036 26.7791L39.396 27.4031L39.174 27.619L39.374 28.806L38.307 28.2461L37.2419 28.806L37.442 27.619L37.22 27.4031L36.587 26.7791ZM43.9869 24.92L42.921 24.359L41.855 24.92L42.0549 23.733L41.192 22.8921L42.384 22.7191L42.917 21.639L43.45 22.7191L44.642 22.8921L43.78 23.733L43.9869 24.92ZM43.9869 32.6931L42.921 32.1321L41.855 32.6931L42.0549 31.5061L41.192 30.665L42.384 30.4921L42.917 29.4121L43.45 30.4921L44.642 30.665L43.78 31.5061L43.9869 32.6931ZM35.511 32.6931L34.4449 32.1321L33.379 32.6931L33.579 31.5061L32.7169 30.665L33.9089 30.4921L34.442 29.4121L34.975 30.4921L36.166 30.665L35.304 31.5061L35.511 32.6931ZM27.0339 32.6931L25.968 32.1321L24.902 32.6931L25.1019 31.5061L24.239 30.665L25.431 30.4921L25.964 29.4121L26.4969 30.4921L27.689 30.665L26.827 31.5061L27.0339 32.6931ZM18.558 32.6931L17.4919 32.1321L16.426 32.6931L16.626 31.5061L15.7639 30.665L16.9559 30.4921L17.489 29.4121L18.022 30.4921L19.214 30.665L18.351 31.5061L18.558 32.6931ZM8.48193 30.493L9.01501 29.4131L9.54797 30.493L10.74 30.666L9.87793 31.5071L10.078 32.6941L9.01196 32.1331L7.94592 32.6941L8.146 31.5071L7.28394 30.666L8.48193 30.493ZM47.85 28.807L46.7839 28.2471L45.718 28.807L45.918 27.62L45.6959 27.4041L45.0549 26.78L46.2469 26.6061L46.78 25.5271L47.313 26.6061L48.505 26.78L47.864 27.4041L47.642 27.62L47.85 28.807ZM2.677 26.78L3.86902 26.6061L4.40198 25.5271L4.93494 26.6061L6.12695 26.78L5.48596 27.4041L5.26392 27.62L5.46399 28.807L4.39795 28.2471L3.33203 28.807L3.53198 27.62L3.31104 27.4041L2.677 26.78ZM5.46802 36.5801L4.40198 36.019L3.33594 36.5801L3.53601 35.3931L2.67395 34.552L3.86597 34.379L4.39893 33.2991L4.93201 34.379L6.12402 34.552L5.26099 35.3931L5.46802 36.5801ZM13.944 36.5801L12.8779 36.019L11.812 36.5801L12.012 35.3931L11.1489 34.552L12.3409 34.379L12.874 33.2991L13.407 34.379L14.599 34.552L13.7369 35.3931L13.944 36.5801ZM22.421 36.5801L21.355 36.019L20.2889 36.5801L20.489 35.3931L19.627 34.552L20.819 34.379L21.3519 33.2991L21.885 34.379L23.0759 34.552L22.214 35.3931L22.421 36.5801ZM30.897 36.5801L29.8309 36.019L28.765 36.5801L28.965 35.3931L28.1019 34.552L29.2939 34.379L29.827 33.2991L30.36 34.379L31.552 34.552L30.6899 35.3931L30.897 36.5801ZM39.374 36.5801L38.307 36.019L37.2419 36.5801L37.442 35.3931L36.58 34.552L37.772 34.379L38.304 33.2991L38.838 34.379L40.0289 34.552L39.167 35.3931L39.374 36.5801ZM47.85 36.5801L46.7839 36.019L45.718 36.5801L45.918 35.3931L45.0549 34.552L46.2469 34.379L46.78 33.2991L47.313 34.379L48.505 34.552L47.642 35.3931L47.85 36.5801Z" fill="#222260"/>
<path d="M3.34998 5.48706L4.41602 4.927L5.48193 5.48706L5.28198 4.30005L6.14392 3.45911L4.95203 3.28601L4.41895 2.20605L3.88599 3.28601L2.69397 3.45911L3.55603 4.30005L3.34998 5.48706Z" fill="white"/>
<path d="M11.83 5.48706L12.896 4.927L13.962 5.48706L13.762 4.30005L14.624 3.45911L13.432 3.28601L12.8989 2.20605L12.366 3.28601L11.174 3.45911L12.036 4.30005L11.83 5.48706Z" fill="white"/>
<path d="M20.307 5.48706L21.3729 4.927L22.439 5.48706L22.239 4.30005L23.101 3.45911L21.9089 3.28601L21.376 2.20605L20.843 3.28601L19.651 3.45911L20.5129 4.30005L20.307 5.48706Z" fill="white"/>
<path d="M28.783 5.48706L29.849 4.927L30.9149 5.48706L30.715 4.30005L31.577 3.45911L30.385 3.28601L29.8519 2.20605L29.319 3.28601L28.127 3.45911L28.989 4.30005L28.783 5.48706Z" fill="white"/>
<path d="M37.26 5.48706L38.3259 4.927L39.392 5.48706L39.192 4.30005L40.054 3.45911L38.8619 3.28601L38.329 2.20605L37.796 3.28601L36.604 3.45911L37.4659 4.30005L37.26 5.48706Z" fill="white"/>
<path d="M45.736 5.48706L46.802 4.927L47.8679 5.48706L47.668 4.30005L48.53 3.45911L47.338 3.28601L46.8049 2.20605L46.272 3.28601L45.08 3.45911L45.942 4.30005L45.736 5.48706Z" fill="white"/>
<path d="M9.56592 7.1731L9.03296 6.09302L8.5 7.1731L7.30798 7.34607L8.16992 8.18701L7.96997 9.37402L9.03601 8.81409L10.1019 9.37402L9.90198 8.18701L10.7639 7.34607L9.56592 7.1731Z" fill="white"/>
<path d="M18.043 7.1731L17.51 6.09302L16.9769 7.1731L15.785 7.34607L16.647 8.18701L16.447 9.37402L17.5129 8.81409L18.579 9.37402L18.379 8.18701L19.241 7.34607L18.043 7.1731Z" fill="white"/>
<path d="M26.5189 7.1731L25.986 6.09302L25.453 7.1731L24.261 7.34607L25.1229 8.18701L24.923 9.37402L25.989 8.81409L27.0549 9.37402L26.855 8.18701L27.7169 7.34607L26.5189 7.1731Z" fill="white"/>
<path d="M34.996 7.1731L34.463 6.09302L33.9299 7.1731L32.7379 7.34607L33.6 8.18701L33.4 9.37402L34.4659 8.81409L35.532 9.37402L35.332 8.18701L36.194 7.34607L34.996 7.1731Z" fill="white"/>
<path d="M43.4719 7.1731L42.939 6.09302L42.406 7.1731L41.214 7.34607L42.0759 8.18701L41.876 9.37402L42.942 8.81409L44.0079 9.37402L43.808 8.18701L44.6699 7.34607L43.4719 7.1731Z" fill="white"/>
<path d="M7.96802 17.1471L9.03394 16.587L10.1 17.1471L9.90002 15.995L9.89392 15.9601L10.756 15.119L9.56396 14.946L9.03101 13.8661L8.49792 14.946L7.30603 15.119L8.16797 15.9601L8.16199 15.995L7.96802 17.1471Z" fill="white"/>
<path d="M16.444 17.1471L17.51 16.587L18.5759 17.1471L18.376 15.995L18.37 15.9601L19.2319 15.119L18.0399 14.946L17.507 13.8661L16.974 14.946L15.782 15.119L16.6439 15.9601L16.6379 15.995L16.444 17.1471Z" fill="white"/>
<path d="M24.9199 17.1471L25.986 16.587L27.052 17.1471L26.8519 15.995L26.8459 15.9601L27.708 15.119L26.516 14.946L25.983 13.8661L25.45 14.946L24.2579 15.119L25.12 15.9601L25.114 15.995L24.9199 17.1471Z" fill="white"/>
<path d="M33.397 17.1471L34.463 16.587L35.5289 17.1471L35.329 15.995L35.323 15.9601L36.1849 15.119L34.9929 14.946L34.46 13.8661L33.927 14.946L32.735 15.119L33.5969 15.9601L33.5909 15.995L33.397 17.1471Z" fill="white"/>
<path d="M44.6639 15.12L43.4719 14.947L42.939 13.8671L42.406 14.947L41.214 15.12L42.0759 15.9611L42.0699 15.9961L41.87 17.1481L42.936 16.588L44.002 17.1481L43.802 15.9961L43.796 15.9611L44.6639 15.12Z" fill="white"/>
<path d="M9.56592 22.7201L9.03296 21.64L8.5 22.7201L7.30798 22.8931L8.16992 23.734L7.96997 24.921L9.03601 24.3601L10.1019 24.921L9.90198 23.734L10.7639 22.8931L9.56592 22.7201Z" fill="white"/>
<path d="M18.043 22.7201L17.51 21.64L16.9769 22.7201L15.785 22.8931L16.647 23.734L16.447 24.921L17.5129 24.3601L18.579 24.921L18.379 23.734L19.241 22.8931L18.043 22.7201Z" fill="white"/>
<path d="M26.5189 22.7201L25.986 21.64L25.453 22.7201L24.261 22.8931L25.1229 23.734L24.923 24.921L25.989 24.3601L27.0549 24.921L26.855 23.734L27.7169 22.8931L26.5189 22.7201Z" fill="white"/>
<path d="M34.996 22.7201L34.463 21.64L33.9299 22.7201L32.7379 22.8931L33.6 23.734L33.4 24.921L34.4659 24.3601L35.532 24.921L35.332 23.734L36.194 22.8931L34.996 22.7201Z" fill="white"/>
<path d="M43.4719 22.7201L42.939 21.64L42.406 22.7201L41.214 22.8931L42.0759 23.734L41.876 24.921L42.942 24.3601L44.0079 24.921L43.808 23.734L44.6699 22.8931L43.4719 22.7201Z" fill="white"/>
<path d="M7.96802 32.6941L9.03394 32.134L10.1 32.6941L9.90002 31.5071L10.762 30.666L9.56995 30.493L9.03699 29.4131L8.50403 30.493L7.31201 30.666L8.17395 31.5071L7.96802 32.6941Z" fill="white"/>
<path d="M18.043 30.493L17.51 29.4131L16.9769 30.493L15.785 30.666L16.647 31.5071L16.447 32.6941L17.5129 32.134L18.579 32.6941L18.379 31.5071L19.241 30.666L18.043 30.493Z" fill="white"/>
<path d="M26.5189 30.493L25.986 29.4131L25.453 30.493L24.261 30.666L25.1229 31.5071L24.923 32.6941L25.989 32.134L27.0549 32.6941L26.855 31.5071L27.7169 30.666L26.5189 30.493Z" fill="white"/>
<path d="M34.996 30.493L34.463 29.4131L33.9299 30.493L32.7379 30.666L33.6 31.5071L33.4 32.6941L34.4659 32.134L35.532 32.6941L35.332 31.5071L36.194 30.666L34.996 30.493Z" fill="white"/>
<path d="M43.4719 30.493L42.939 29.4131L42.406 30.493L41.214 30.666L42.0759 31.5071L41.876 32.6941L42.942 32.134L44.0079 32.6941L43.808 31.5071L44.6699 30.666L43.4719 30.493Z" fill="white"/>
<path d="M4.94995 11.0601L4.41699 9.9801L3.88403 11.0601L2.69202 11.233L3.55396 12.0741L3.354 13.2611L4.41992 12.701L5.48596 13.2611L5.28601 12.0741L6.14795 11.233L4.94995 11.0601Z" fill="white"/>
<path d="M13.429 11.0601L12.896 9.9801L12.3629 11.0601L11.171 11.233L12.033 12.0741L11.833 13.2611L12.8989 12.701L13.965 13.2611L13.765 12.0741L14.627 11.233L13.429 11.0601Z" fill="white"/>
<path d="M21.906 11.0601L21.3729 9.9801L20.84 11.0601L19.6479 11.233L20.51 12.0741L20.3099 13.2611L21.376 12.701L22.442 13.2611L22.2419 12.0741L23.104 11.233L21.906 11.0601Z" fill="white"/>
<path d="M30.382 11.0601L29.849 9.9801L29.3159 11.0601L28.124 11.233L28.986 12.0741L28.786 13.2611L29.8519 12.701L30.918 13.2611L30.718 12.0741L31.58 11.233L30.382 11.0601Z" fill="white"/>
<path d="M38.859 11.0601L38.3259 9.9801L37.793 11.0601L36.601 11.233L37.463 12.0741L37.2629 13.2611L38.329 12.701L39.395 13.2611L39.1949 12.0741L40.057 11.233L38.859 11.0601Z" fill="white"/>
<path d="M47.335 11.0601L46.802 9.9801L46.2689 11.0601L45.077 11.233L45.939 12.0741L45.739 13.2611L46.8049 12.701L47.871 13.2611L47.671 12.0741L48.533 11.233L47.335 11.0601Z" fill="white"/>
<path d="M4.94995 18.833L4.41699 17.7531L3.88403 18.833L2.69202 19.0061L3.55396 19.847L3.354 21.0341L4.41992 20.474L5.48596 21.0341L5.28601 19.847L6.14795 19.0061L4.94995 18.833Z" fill="white"/>
<path d="M11.83 21.0341L12.896 20.474L13.962 21.0341L13.762 19.847L14.624 19.0061L13.432 18.833L12.8989 17.7531L12.366 18.833L11.174 19.0061L12.036 19.847L11.83 21.0341Z" fill="white"/>
<path d="M21.906 18.833L21.3729 17.7531L20.84 18.833L19.6479 19.0061L20.51 19.847L20.3099 21.0341L21.376 20.474L22.442 21.0341L22.2419 19.847L23.104 19.0061L21.906 18.833Z" fill="white"/>
<path d="M30.382 18.833L29.849 17.7531L29.3159 18.833L28.124 19.0061L28.986 19.847L28.786 21.0341L29.8519 20.474L30.918 21.0341L30.718 19.847L31.58 19.0061L30.382 18.833Z" fill="white"/>
<path d="M38.859 18.833L38.3259 17.7531L37.793 18.833L36.601 19.0061L37.463 19.847L37.2629 21.0341L38.329 20.474L39.395 21.0341L39.1949 19.847L40.057 19.0061L38.859 18.833Z" fill="white"/>
<path d="M47.335 18.833L46.802 17.7531L46.2689 18.833L45.077 19.0061L45.939 19.847L45.739 21.0341L46.8049 20.474L47.871 21.0341L47.671 19.847L48.533 19.0061L47.335 18.833Z" fill="white"/>
<path d="M3.34998 28.807L4.41602 28.2471L5.48193 28.807L5.28198 27.62L5.50403 27.4041L6.14502 26.7791L4.94995 26.6071L4.41699 25.5271L3.88403 26.6071L2.69202 26.78L3.33301 27.405L3.55493 27.6211L3.34998 28.807Z" fill="white"/>
<path d="M11.83 28.807L12.896 28.2471L13.962 28.807L13.762 27.62L13.984 27.4041L14.625 26.7791L13.433 26.6061L12.9 25.526L12.3669 26.6061L11.1749 26.7791L11.8159 27.4041L12.038 27.62L11.83 28.807Z" fill="white"/>
<path d="M20.307 28.807L21.3729 28.2471L22.439 28.807L22.239 27.62L22.4609 27.4041L23.1019 26.7791L21.91 26.6061L21.377 25.526L20.844 26.6061L19.652 26.7791L20.293 27.4041L20.515 27.62L20.307 28.807Z" fill="white"/>
<path d="M28.783 28.807L29.849 28.2471L30.9149 28.807L30.715 27.62L30.937 27.4041L31.578 26.7791L30.386 26.6061L29.853 25.526L29.3199 26.6061L28.1279 26.7791L28.7689 27.4041L28.991 27.62L28.783 28.807Z" fill="white"/>
<path d="M37.26 28.807L38.3259 28.2471L39.392 28.807L39.192 27.62L39.4139 27.4041L40.0549 26.7791L38.8629 26.6061L38.33 25.526L37.797 26.6061L36.605 26.7791L37.246 27.4041L37.468 27.62L37.26 28.807Z" fill="white"/>
<path d="M48.527 26.78L47.335 26.6071L46.802 25.5271L46.2689 26.6071L45.077 26.78L45.718 27.405L45.9399 27.6211L45.74 28.8081L46.806 28.248L47.8719 28.8081L47.672 27.6211L47.8939 27.405L48.527 26.78Z" fill="white"/>
<path d="M4.94995 34.38L4.41699 33.3L3.88403 34.38L2.69202 34.5531L3.55396 35.394L3.354 36.5811L4.41992 36.021L5.48596 36.5811L5.28601 35.394L6.14795 34.5531L4.94995 34.38Z" fill="white"/>
<path d="M13.429 34.38L12.896 33.3L12.3629 34.38L11.171 34.5531L12.033 35.394L11.833 36.5811L12.8989 36.021L13.965 36.5811L13.765 35.394L14.627 34.5531L13.429 34.38Z" fill="white"/>
<path d="M21.906 34.38L21.3729 33.3L20.84 34.38L19.6479 34.5531L20.51 35.394L20.3099 36.5811L21.376 36.021L22.442 36.5811L22.2419 35.394L23.104 34.5531L21.906 34.38Z" fill="white"/>
<path d="M30.382 34.38L29.849 33.3L29.3159 34.38L28.124 34.5531L28.986 35.394L28.786 36.5811L29.8519 36.021L30.918 36.5811L30.718 35.394L31.58 34.5531L30.382 34.38Z" fill="white"/>
<path d="M38.859 34.38L38.3259 33.3L37.793 34.38L36.601 34.5531L37.463 35.394L37.2629 36.5811L38.329 36.021L39.395 36.5811L39.1949 35.394L40.057 34.5531L38.859 34.38Z" fill="white"/>
<path d="M47.335 34.38L46.802 33.3L46.2689 34.38L45.077 34.5531L45.939 35.394L45.739 36.5811L46.8049 36.021L47.871 36.5811L47.671 35.394L48.533 34.5531L47.335 34.38Z" fill="white"/>
</svg>
